<svg width="25" height="17" viewBox="0 0 25 17" fill="none" xmlns="http://www.w3.org/2000/svg">
<path d="M3.28805 0.389371C3.04709 0.228605 2.767 0.136269 2.47768 0.122215C2.18835 0.108162 1.90063 0.172916 1.64522 0.309572C1.38982 0.446227 1.1763 0.649657 1.02745 0.898156C0.878601 1.14665 0.800005 1.4309 0.800049 1.72057V14.5206C0.800005 14.8102 0.878601 15.0945 1.02745 15.343C1.1763 15.5915 1.38982 15.7949 1.64522 15.9316C1.90063 16.0682 2.18835 16.133 2.47768 16.1189C2.767 16.1049 3.04709 16.0125 3.28805 15.8518L12 10.0438V14.5206C12 14.8102 12.0786 15.0945 12.2274 15.343C12.3763 15.5915 12.5898 15.7949 12.8452 15.9316C13.1006 16.0682 13.3883 16.133 13.6777 16.1189C13.967 16.1049 14.2471 16.0125 14.488 15.8518L24.088 9.45177C24.3072 9.30565 24.4869 9.1077 24.6111 8.87548C24.7354 8.64326 24.8004 8.38395 24.8004 8.12057C24.8004 7.85719 24.7354 7.59788 24.6111 7.36566C24.4869 7.13344 24.3072 6.93549 24.088 6.78937L14.488 0.389371C14.2471 0.228605 13.967 0.136269 13.6777 0.122215C13.3883 0.108162 13.1006 0.172916 12.8452 0.309572C12.5898 0.446227 12.3763 0.649657 12.2274 0.898156C12.0786 1.14665 12 1.4309 12 1.72057V6.19737L3.28805 0.389371Z" fill="white"/>
</svg>
