<svg width="25" height="17" viewBox="0 0 25 17" fill="none" xmlns="http://www.w3.org/2000/svg">
<path d="M21.712 0.389371C21.9529 0.228605 22.233 0.136269 22.5223 0.122215C22.8117 0.108162 23.0994 0.172916 23.3548 0.309572C23.6102 0.446227 23.8237 0.649657 23.9726 0.898156C24.1214 1.14665 24.2 1.4309 24.2 1.72057V14.5206C24.2 14.8102 24.1214 15.0945 23.9726 15.343C23.8237 15.5915 23.6102 15.7949 23.3548 15.9316C23.0994 16.0682 22.8117 16.133 22.5223 16.1189C22.233 16.1049 21.9529 16.0125 21.712 15.8518L13 10.0438V14.5206C13 14.8102 12.9214 15.0945 12.7726 15.343C12.6237 15.5915 12.4102 15.7949 12.1548 15.9316C11.8994 16.0682 11.6117 16.133 11.3223 16.1189C11.033 16.1049 10.7529 16.0125 10.512 15.8518L0.911953 9.45177C0.692822 9.30565 0.513149 9.1077 0.388882 8.87548C0.264616 8.64326 0.199594 8.38395 0.199594 8.12057C0.199594 7.85719 0.264616 7.59788 0.388882 7.36566C0.513149 7.13344 0.692822 6.93549 0.911953 6.78937L10.512 0.389371C10.7529 0.228605 11.033 0.136269 11.3223 0.122215C11.6117 0.108162 11.8994 0.172916 12.1548 0.309572C12.4102 0.446227 12.6237 0.649657 12.7726 0.898156C12.9214 1.14665 13 1.4309 13 1.72057V6.19737L21.712 0.389371Z" fill="white"/>
</svg>
